<svg xmlns="http://www.w3.org/2000/svg" viewBox="0 0 16.2 17" enable-background="new 0 0 16.2 17"><style type="text/css">.st0{fill:#202348;} .st1{fill:#FFFFFF;}</style><g id="Layer_2"><path class="st0" d="M6.6 2h3v1h-3zm6.6 0h-.7v1h.7c1.1 0 2 .9 2 2v9c0 1.1-.9 2-2 2h-10.2c-1.1 0-2-.9-2-2v-9c0-1.1.9-2 2-2h.7v-1h-.7c-1.7 0-3 1.3-3 3v9c0 1.7 1.3 3 3 3h10.2c1.7 0 3-1.3 3-3v-9c0-1.7-1.3-3-3-3zm-8.3-1.3h1v3.6h-1z"/><path class="st1" d="M3.9 5h3v-5h-3v5zm1-4.3h1v3.6h-1v-3.6z"/><path class="st0" d="M10.4.7h1v3.6h-1z"/><path class="st1" d="M9.4 5h3v-5h-3v5zm1-4.3h1v3.6h-1v-3.6z"/><circle class="st0" cx="4.8" cy="8.6" r="1.1"/><circle class="st0" cx="4.8" cy="11.5" r="1.1"/><circle class="st0" cx="8.2" cy="8.6" r="1.1"/><circle class="st0" cx="8.2" cy="11.5" r="1.1"/><circle class="st0" cx="11.4" cy="8.6" r="1.1"/><circle class="st0" cx="11.4" cy="11.5" r="1.1"/></g></svg>