<svg xmlns="http://www.w3.org/2000/svg" viewBox="0 0 51.4 72.9" enable-background="new 0 0 51.4 72.9"><style type="text/css">.st0{fill:#202348;} .st1{fill:#FFFFFF;}</style><path class="st0" d="M25.729 72.95l-20.6-29.6c-7.6-11.2-6.6-25.6 2.4-35.8l.1-.1.6-.6c10.1-9.3 26.1-9.1 35.7.6 9 8.7 10.1 25.4 2.4 35.9l-20.6 29.6zm-16-63.4c-8.1 9.1-8.9 22-2.1 32l18.1 26.1 18.1-26.1c6.8-9.2 5.8-24.4-2-32-8.5-8.6-22.7-8.8-31.5-.6l-.6.6z" id="Path_403_1_"/><g id="Layer_2"><ellipse class="st0" cx="26" cy="25" rx="8.3" ry="8"/><ellipse class="st1" cx="26" cy="25" rx="2.5" ry="2.4"/></g></svg>